HIERARCHY
ROOT Hips
{
	OFFSET 0.00000 0.00000 0.00000
	CHANNELS 6 Xposition Yposition Zposition Zrotation Yrotation Xrotation 
	JOINT LHipJoint
	{
		OFFSET 0 0 0
		CHANNELS 3 Zrotation Yrotation Xrotation
		JOINT LeftUpLeg
		{
			OFFSET 1.70593 -1.62653 0.87602
			CHANNELS 3 Zrotation Yrotation Xrotation
			JOINT LeftLeg
			{
				OFFSET 2.32330 -6.38322 0.00000
				CHANNELS 3 Zrotation Yrotation Xrotation
				JOINT LeftFoot
				{
					OFFSET 2.45016 -6.73177 0.00000
					CHANNELS 3 Zrotation Yrotation Xrotation
					JOINT LeftToeBase
					{
						OFFSET 0.13029 -0.35798 1.96980
						CHANNELS 3 Zrotation Yrotation Xrotation
						End Site
						{
							OFFSET 0.00000 -0.00000 1.01270
						}
					}
				}
			}
		}
	}
	JOINT RHipJoint
	{
		OFFSET 0 0 0
		CHANNELS 3 Zrotation Yrotation Xrotation
		JOINT RightUpLeg
		{
			OFFSET -1.80599 -1.62652 0.87602
			CHANNELS 3 Zrotation Yrotation Xrotation
			JOINT RightLeg
			{
				OFFSET -2.45375 -6.74162 0.00000
				CHANNELS 3 Zrotation Yrotation Xrotation
				JOINT RightFoot
				{
					OFFSET -2.45828 -6.75406 0.00000
					CHANNELS 3 Zrotation Yrotation Xrotation
					JOINT RightToeBase
					{
						OFFSET -0.13801 -0.37917 1.88456
						CHANNELS 3 Zrotation Yrotation Xrotation
						End Site
						{
							OFFSET -0.00000 -0.00000 0.97281
						}
					}
				}
			}
		}
	}
	JOINT LowerBack
	{
		OFFSET 0 0 0
		CHANNELS 3 Zrotation Yrotation Xrotation
		JOINT Spine
		{
			OFFSET 0.01003 2.00576 -0.14267
			CHANNELS 3 Zrotation Yrotation Xrotation
			JOINT Spine1
			{
				OFFSET 0.00908 2.01191 0.01660
				CHANNELS 3 Zrotation Yrotation Xrotation
				JOINT Neck
				{
					OFFSET 0 0 0
					CHANNELS 3 Zrotation Yrotation Xrotation
					JOINT Neck1
					{
						OFFSET -0.05849 1.60301 0.18934
						CHANNELS 3 Zrotation Yrotation Xrotation
						JOINT Head
						{
							OFFSET 0.01775 1.59435 -0.07960
							CHANNELS 3 Zrotation Yrotation Xrotation
							End Site
							{
								OFFSET 0.01210 1.70732 -0.05248
							}
						}
					}
				}
				JOINT LeftShoulder
				{
					OFFSET 0 0 0
					CHANNELS 3 Zrotation Yrotation Xrotation
					JOINT LeftArm
					{
						OFFSET 3.15315 1.26460 0.30667
						CHANNELS 3 Zrotation Yrotation Xrotation
						JOINT LeftForeArm
						{
							OFFSET 4.97694 -0.00000 -0.00000
							CHANNELS 3 Zrotation Yrotation Xrotation
							JOINT LeftHand
							{
								OFFSET 3.14391 -0.00000 -0.00000
								CHANNELS 3 Zrotation Yrotation Xrotation
								JOINT LeftFingerBase
								{
									OFFSET 0 0 0
									CHANNELS 3 Zrotation Yrotation Xrotation
									JOINT LeftHandIndex1
									{
										OFFSET 0.59358 -0.00000 -0.00000
										CHANNELS 3 Zrotation Yrotation Xrotation
										End Site
										{
											OFFSET 0.47856 -0.00000 -0.00000
										}
									}
								}
								JOINT LThumb
								{
									OFFSET 0 0 0
									CHANNELS 3 Zrotation Yrotation Xrotation
									End Site
									{
										OFFSET 0.48587 -0.00000 0.48587
									}
								}
							}
						}
					}
				}
				JOINT RightShoulder
				{
					OFFSET 0 0 0
					CHANNELS 3 Zrotation Yrotation Xrotation
					JOINT RightArm
					{
						OFFSET -3.25568 1.35581 0.18982
						CHANNELS 3 Zrotation Yrotation Xrotation
						JOINT RightForeArm
						{
							OFFSET -4.90473 -0.00000 0.00000
							CHANNELS 3 Zrotation Yrotation Xrotation
							JOINT RightHand
							{
								OFFSET -3.21621 0.00006 -0.00004
								CHANNELS 3 Zrotation Yrotation Xrotation
								JOINT RightFingerBase
								{
									OFFSET 0 0 0
									CHANNELS 3 Zrotation Yrotation Xrotation
									JOINT RightHandIndex1
									{
										OFFSET -0.62353 -0.00000 -0.00000
										CHANNELS 3 Zrotation Yrotation Xrotation
										End Site
										{
											OFFSET -0.50270 -0.00000 -0.00000
										}
									}
								}
								JOINT RThumb
								{
									OFFSET 0 0 0
									CHANNELS 3 Zrotation Yrotation Xrotation
									End Site
									{
										OFFSET -0.51038 -0.00000 0.51038
									}
								}
							}
						}
					}
				}
			}
		}
	}
}
MOTION
Frames: 13
Frame Time: 0.153846
0.00 0.00 0.00 0 0 0 0 0 0 -21 0 0 0 0 0 0 0 0 0 0 0 0 0 0 21 0 0 0 0 0 0 0 0 0 0 0 0 0 0 0 0 0 0 0 0 0 0 -16 0 0 21 0 0 11 0 0 0 -8 0 0 0 0 0 0 0 0 0 0 0 0 0 0 0 0 0 0 0 0 8 0 0 0 0 0 0 0 0 0 0 0 0 0 0 0 0 0
0.00 0.00 0.00 -2.5402 -2.4608 5.3829 0.0000 0.0000 0.0000 -15.4411 -4.4932 -35.9976 6.6350 15.0167 47.4800 0.7123 -1.8904 -15.4128 3.5878 -11.5907 -34.2991 0.0000 0.0000 0.0000 27.6196 6.1674 -13.4375 -3.2287 -11.0564 32.4705 0.5066 21.5276 -10.9163 -0.6212 -5.0440 14.0341 5.9450 3.4792 0.2413 2.1070 4.7492 -1.8217 -1.2169 2.2967 -1.7126 -2.2122 -1.1286 -10.4472 -0.7498 -0.9410 21.9640 0.0246 -0.6893 8.5660 0.0000 0.0000 0.0000 -90.1502 14.4511 27.9158 10.4927 -17.5065 -1.6200 -0.0000 0.0000 -5.7083 24.4272 -11.7908 -5.3024 -7.1250 0.0000 -0.0000 -1.9184 17.0716 1.2714 0.0000 0.0000 0.0000 84.7854 14.2740 21.2096 -16.2850 25.9055 -3.7696 0.0000 -0.0000 -0.6008 -22.3037 -34.0860 12.9470 7.1250 -0.0000 -0.0000 13.7532 -65.6701 -6.9242
0.00 0.00 0.00 -4.0514 -4.5002 5.6140 0.0000 0.0000 0.0000 -11.8567 -7.3567 -36.8726 2.8835 10.5040 30.6249 1.0236 -1.9629 -18.5652 0.0424 -1.3291 -3.6549 0.0000 0.0000 0.0000 28.8178 3.7482 -6.4003 -2.1419 -9.1556 26.2834 1.2126 23.7902 -6.5189 -1.3980 -7.4797 21.1445 7.5970 4.9930 -1.2444 1.6460 6.6179 -1.6888 -2.4247 3.2472 -0.3947 -1.2268 -1.6627 -6.6189 -0.4605 -2.0007 19.2918 -0.1002 -1.0740 6.9844 0.0000 0.0000 0.0000 -88.5014 22.0407 30.4015 11.0989 -18.4396 -1.8071 -0.0000 0.0000 -8.3463 23.2654 -11.8990 -5.0660 -7.1250 0.0000 -0.0000 -2.7338 17.0709 1.8129 0.0000 0.0000 0.0000 83.4559 18.2748 23.6512 -18.9946 29.4119 -5.0282 0.0000 -0.0000 -4.1732 -24.7706 -33.7547 14.3806 7.1250 -0.0000 -0.0000 10.4330 -66.0530 -5.3257
0.00 0.00 0.00 -3.0768 -4.5880 6.0295 0.0000 0.0000 0.0000 -11.3838 -9.6513 -34.7499 0.5852 4.8980 13.6179 0.5124 3.2386 -15.0924 0.8432 -5.8571 -16.3703 0.0000 0.0000 0.0000 27.0955 1.0071 -2.4476 -1.7598 -8.3468 23.7724 1.4131 25.6121 -7.0603 -0.6415 -5.1240 14.2626 5.9433 5.3203 -1.6809 1.0580 7.0183 -1.4075 -2.0551 3.4789 0.0617 -0.7818 -1.8437 -7.3343 -0.1952 -2.3560 18.5761 -0.1205 -1.1911 6.8786 -0.0000 -0.0000 0.0000 -88.1219 26.0313 28.9471 11.1794 -18.5626 -1.8326 -0.0000 0.0000 -9.4960 20.6936 -14.6074 -5.4418 -7.1250 0.0000 -0.0000 -4.6280 14.4483 3.3380 -0.0000 -0.0000 0.0000 81.9565 22.2562 25.3100 -20.2502 30.9426 -5.6595 0.0000 -0.0000 -6.9475 -22.7419 -34.6350 13.4000 7.1250 -0.0000 -0.0000 13.7263 -66.3288 -7.1182
0.00 0.00 0.00 -4.5592 -6.3596 9.3074 0.0000 0.0000 0.0000 -8.3035 -11.2387 -40.5218 1.7393 8.3006 23.6310 -0.0051 4.4797 -6.1996 0.1261 -2.2895 -6.3065 0.0000 0.0000 0.0000 25.1732 0.3822 10.8469 -1.0761 -6.5939 18.5176 0.7685 15.5203 8.5839 -0.4229 -4.1739 11.5664 4.5182 5.8426 -3.9806 0.0894 7.6354 -2.3887 -2.0555 3.7859 0.3269 -2.2420 -1.0805 -9.5888 2.9723 -1.6089 16.4304 1.1872 -0.6622 6.6218 0.0000 0.0000 0.0000 -89.1860 28.9124 9.1703 8.7706 -14.7941 -1.1408 -0.0000 0.0000 -1.6968 23.2029 -15.0509 -6.3517 -7.1250 0.0000 -0.0000 -2.9523 13.6878 2.1728 0.0000 0.0000 0.0000 83.0848 14.9708 28.2657 -21.6808 32.6144 -6.4129 0.0000 -0.0000 -10.2344 -24.6438 -35.3384 14.8609 7.1250 -0.0000 -0.0000 12.0195 -67.5771 -6.5639
0.00 0.00 0.00 -0.7444 -5.7381 8.6591 0.0000 0.0000 0.0000 -15.1974 -10.6624 -37.4923 2.7611 10.2979 29.9469 0.0607 1.0972 -5.1932 0.0302 -1.1211 -3.0820 0.0000 0.0000 0.0000 21.2096 3.7222 7.8304 -3.5110 -11.4796 33.9150 -0.6160 2.3278 15.8506 -0.0250 -1.0215 2.8078 0.3187 5.7266 -4.6950 -2.1165 7.6359 -2.2864 -1.9379 3.8113 0.5919 -2.7180 -1.5615 -10.2300 5.1665 -2.5580 16.3044 1.8863 -0.9600 6.7545 0.0000 -0.0000 0.0000 -86.4740 25.3771 4.8880 9.9404 -16.6463 -1.4578 -0.0000 0.0000 -0.5917 18.1386 -11.3621 -3.6927 -7.1250 0.0000 -0.0000 -6.3058 18.0826 4.0618 0.0000 -0.0000 0.0000 86.4898 4.4885 26.9018 -20.9057 31.7181 -6.0003 0.0000 -0.0000 -7.7480 -20.3989 -34.9813 12.0352 7.1250 -0.0000 -0.0000 16.8911 -65.9836 -8.6626
0.00 0.00 0.00 -0.8399 -6.2818 7.9957 0.0000 0.0000 0.0000 -17.3466 -9.0308 -33.6467 3.2062 11.0216 32.3529 0.1740 -0.7994 -7.6354 0.0041 -0.4137 -1.1368 0.0000 0.0000 0.0000 20.7986 6.0009 0.0026 -7.4013 -15.6607 50.3761 -1.0230 -11.0375 18.5171 -0.1868 -2.7840 7.6778 0.6779 5.4539 -3.4403 -2.0026 7.2548 -2.3857 -2.1768 3.6144 -0.1911 -2.9746 -1.1292 -10.9794 4.6197 -1.8417 17.2276 1.8219 -0.6613 7.1505 -0.0000 -0.0000 0.0000 -86.5098 19.4056 2.5562 9.6151 -16.1353 -1.3660 -0.0000 0.0000 -1.6969 21.8168 -12.0966 -4.7953 -7.1250 0.0000 -0.0000 -3.7514 16.9982 2.4962 -0.0000 -0.0000 0.0000 88.2986 -1.9111 26.9957 -18.2664 28.4970 -4.6757 0.0000 -0.0000 -6.8131 -27.2519 -37.3434 17.3509 7.1250 -0.0000 -0.0000 10.6443 -70.3564 -6.4709
0.00 0.00 0.00 1.0996 -6.4985 6.0600 0.0000 0.0000 0.0000 -21.9333 -9.4552 -22.1696 2.8726 10.4860 30.5652 0.6541 -2.4996 -14.6301 0.0096 0.6316 1.7357 0.0000 0.0000 0.0000 18.6954 9.0134 -14.2785 -11.8597 -18.3307 65.5435 0.1001 5.8165 0.4530 -0.0171 0.8453 -2.3233 -1.4545 3.7705 -1.7582 -1.5516 5.0173 -2.6461 -0.7677 2.5196 -1.7173 -3.1054 -0.2030 -9.6322 4.1535 -0.5231 18.2921 1.8214 -0.0908 7.2000 -0.0000 0.0000 0.0000 -88.3983 7.9340 2.2511 10.0224 -16.7746 -1.4814 -0.0000 0.0000 -4.6008 24.3125 -10.3469 -4.6390 -7.1250 0.0000 -0.0000 -1.9262 18.6546 1.2096 -0.0000 0.0000 0.0000 91.2110 -11.0558 19.5045 -13.6455 22.2256 -2.6925 0.0000 0.0000 2.0629 -28.1070 -34.6721 16.9010 7.1250 -0.0000 -0.0000 6.8720 -67.9665 -3.7991
0.00 0.00 0.00 2.6662 -7.6184 3.8048 0.0000 0.0000 0.0000 -26.3098 -5.6022 -11.7556 2.4003 9.6543 27.8644 1.1936 -5.5978 -19.5556 0.0307 1.1317 3.1114 0.0000 0.0000 0.0000 17.3654 13.8762 -27.2294 -10.2305 -17.5375 60.2561 -0.7466 9.5772 -15.8222 -0.4719 4.4056 -12.2206 -2.5120 2.3875 -0.2713 -0.5863 3.1506 -2.1846 0.7483 1.6147 -2.1921 -2.3972 0.6896 -7.7225 1.4245 1.0470 17.1485 0.9342 0.4686 6.4597 0.0000 -0.0000 0.0000 -88.7367 -2.8600 15.0810 12.8194 -21.0221 -2.3881 -0.0000 0.0000 -13.1868 24.5057 -10.9819 -4.9630 -7.1250 0.0000 -0.0000 -1.8208 17.9446 1.1718 0.0000 -0.0000 0.0000 91.7166 -18.0970 8.8695 -11.3258 18.7859 -1.8795 0.0000 0.0000 5.0166 -23.2531 -29.0126 11.7722 7.1250 -0.0000 -0.0000 8.9532 -60.8748 -3.4795
0.00 0.00 0.00 2.8996 -6.5534 4.3977 0.0000 0.0000 0.0000 -27.4301 -1.7545 -4.1879 1.3000 7.2235 20.3792 1.1090 -7.0862 -18.8057 0.0058 0.4924 1.3529 0.0000 0.0000 0.0000 15.5322 17.6797 -34.5442 -5.9618 -14.3912 44.8283 -0.7593 9.1084 -15.8535 -0.8666 5.9356 -16.5977 -2.4336 1.2331 -0.1815 0.0271 1.6187 -2.2557 1.3604 0.8562 -2.2810 -3.1687 1.1007 -8.9608 2.2589 1.6075 18.1358 1.3944 0.7530 6.9672 -0.0000 -0.0000 0.0000 -86.7606 -10.8038 25.3454 16.2489 -25.8569 -3.7538 -0.0000 0.0000 -20.6241 26.2672 -10.4231 -5.1021 -7.1250 0.0000 -0.0000 -0.5495 18.3877 0.3482 -0.0000 -0.0000 0.0000 92.0981 -22.5743 0.5329 -11.1171 18.4675 -1.8128 0.0000 0.0000 8.4319 -22.0376 -30.5003 11.6098 7.1250 -0.0000 -0.0000 11.2689 -62.0674 -4.7098
0.00 0.00 0.00 4.2239 -3.6975 4.2511 0.0000 0.0000 0.0000 -28.3134 3.6125 10.3403 0.0409 1.3053 3.5892 0.4725 -7.7230 -12.5871 0.0425 1.3305 3.6586 0.0000 0.0000 0.0000 11.9934 18.2308 -38.8238 -2.4511 -9.7485 28.1662 -0.2932 11.9927 -12.0090 -0.0502 1.4453 -3.9749 -2.9031 0.2669 0.4955 0.2940 0.3110 -2.0471 1.9210 0.2145 -2.3971 -3.2233 0.9414 -8.5589 2.0815 1.4203 17.0153 1.3152 0.6513 6.5439 0.0000 -0.0000 0.0000 -86.2691 -19.3167 27.2223 20.3390 -31.0486 -5.7051 -0.0000 0.0000 -23.2705 26.4412 -10.6194 -5.2362 -7.1250 0.0000 -0.0000 -0.4390 18.1530 0.2804 0.0000 -0.0000 0.0000 93.2573 -28.0253 -1.9137 -12.6721 20.8049 -2.3355 0.0000 0.0000 6.5769 -19.4382 -35.0829 11.4661 7.1250 -0.0000 -0.0000 18.1289 -65.8043 -9.2406
0.00 0.00 0.00 4.2579 -2.2682 5.4362 0.0000 0.0000 0.0000 -27.8430 4.1212 14.8452 0.8842 5.9940 16.7671 0.0418 -0.8864 -3.6540 0.0000 0.0418 0.1149 0.0000 0.0000 0.0000 11.4390 19.7453 -38.7810 -3.8702 -11.9856 35.6810 0.0628 6.2201 -2.3719 -0.0137 -0.7569 2.0803 0.6250 -0.1221 0.6320 1.2906 -0.1238 -2.0399 0.9770 -0.0605 -2.4442 -2.8780 1.1939 -10.0653 -0.5421 2.2017 15.4614 0.4851 0.8546 6.3323 0.0000 -0.0000 0.0000 -87.8428 -15.2424 25.6334 27.2573 -38.4234 -9.6586 -0.0000 0.0000 -24.3756 25.6357 -13.9071 -6.5794 -7.1250 0.0000 -0.0000 -1.2228 14.6251 0.8747 0.0000 -0.0000 0.0000 92.2907 -22.6047 -10.5614 -10.7248 17.8652 -1.6905 0.0000 0.0000 13.9801 -20.2828 -37.0572 12.5553 7.1250 -0.0000 -0.0000 19.3174 -67.8883 -10.7821
0.00 0.00 0.00 3.5697 -2.3154 5.2940 0.0000 0.0000 0.0000 -26.6667 2.3760 6.3237 3.8002 11.8897 35.3429 0.0807 5.9250 6.1242 0.1271 -2.2982 -6.3305 0.0000 0.0000 0.0000 13.8725 18.5316 -35.9373 -4.4398 -12.7237 38.3426 0.1662 9.6255 -3.2888 -0.0401 -1.2925 3.5540 1.0135 -0.1617 1.0477 1.9568 -0.1474 -1.9591 1.4458 -0.0730 -2.5950 -2.8273 1.4620 -9.7455 -0.9349 2.6049 15.1465 0.3801 1.0283 6.1792 -0.0000 -0.0000 0.0000 -89.2614 -11.0543 23.8505 24.8354 -36.0352 -8.1928 -0.0000 0.0000 -23.8089 26.2076 -13.1002 -6.3659 -7.1250 0.0000 -0.0000 -0.7717 15.4400 0.5384 -0.0000 -0.0000 0.0000 90.7504 -15.8768 -18.0344 -8.5039 14.3664 -1.0737 0.0000 0.0000 25.3532 -20.5162 -33.2866 11.6058 7.1250 -0.0000 -0.0000 15.1677 -64.3981 -7.2039
